<?xml version="1.0" standalone="no"?>
<!DOCTYPE svg PUBLIC "-//W3C//DTD SVG 20010904//EN"
 "http://www.w3.org/TR/2001/REC-SVG-20010904/DTD/svg10.dtd">
<svg version="1.0" xmlns="http://www.w3.org/2000/svg"
 width="185.000000pt" height="185.000000pt" viewBox="0 0 185.000000 185.000000"
 preserveAspectRatio="xMidYMid meet">
<metadata>
Created by potrace 1.11, written by Peter Selinger 2001-2013
</metadata>
<g transform="translate(0.000000,185.000000) scale(0.100000,-0.100000)"
fill="#000000" stroke="none">
<path d="M303 1792 l-183 -2 -1 -73 c-2 -168 -2 -609 1 -695 6 -212 90 -422
245 -610 32 -39 135 -142 142 -142 5 0 16 -8 24 -17 24 -27 53 -49 132 -100
39 -27 75 -52 79 -58 4 -5 8 -7 8 -2 0 4 18 -4 40 -18 22 -14 40 -22 40 -18 0
5 4 3 8 -2 10 -15 59 -35 83 -35 34 0 273 128 299 161 3 3 13 10 22 15 36 20
192 164 241 224 75 90 153 228 185 326 54 163 55 181 55 622 0 227 -2 415 -5
418 -6 5 -1129 11 -1415 6z"/>
</g>
</svg>
